HIERARCHY
ROOT Hips
{
    OFFSET 0.000000 0.000000 0.000000
    CHANNELS 6 Xposition Yposition Zposition Zrotation Xrotation Yrotation
    JOINT Spine
    {
        OFFSET -0.000000 14.517291 0.000000
        CHANNELS 3 Zrotation Xrotation Yrotation
        JOINT Spine1
        {
            OFFSET -0.000000 37.558300 0.000000
            CHANNELS 3 Zrotation Xrotation Yrotation
            JOINT Neck
            {
                OFFSET -0.000000 37.404057 3.400369
                CHANNELS 3 Zrotation Xrotation Yrotation
                JOINT Head
                {
                    OFFSET -0.000000 24.785618 -3.540803
                    CHANNELS 3 Zrotation Xrotation Yrotation
                    End Site
                    {
                        OFFSET -0.000000 35.408028 0.000000
                    }
                }
            }
            JOINT LeftShoulder
            {
                OFFSET 6.992933 33.973492 -0.192664
                CHANNELS 3 Zrotation Xrotation Yrotation
                JOINT LeftArm
                {
                    OFFSET 21.527611 0.000000 0.000000
                    CHANNELS 3 Zrotation Xrotation Yrotation
                    JOINT LeftForeArm
                    {
                        OFFSET 56.353916 0.000000 0.000000
                        CHANNELS 3 Zrotation Xrotation Yrotation
                        JOINT LeftHand
                        {
                            OFFSET 47.774071 0.000000 0.000000
                            CHANNELS 3 Zrotation Xrotation Yrotation
                            End Site
                            {
                                OFFSET 26.556021 0.000000 0.000000
                            }
                        }
                    }
                }
            }
            JOINT RightShoulder
            {
                OFFSET -7.065357 33.973492 -0.192664
                CHANNELS 3 Zrotation Xrotation Yrotation
                JOINT RightArm
                {
                    OFFSET -21.527611 0.000000 0.000000
                    CHANNELS 3 Zrotation Xrotation Yrotation
                    JOINT RightForeArm
                    {
                        OFFSET -56.353916 0.000000 0.000000
                        CHANNELS 3 Zrotation Xrotation Yrotation
                        JOINT RightHand
                        {
                            OFFSET -47.774071 0.000000 0.000000
                            CHANNELS 3 Zrotation Xrotation Yrotation
                            End Site
                            {
                                OFFSET -26.556021 0.000000 0.000000
                            }
                        }
                    }
                }
            }
        }
    }
    JOINT LeftUpLeg
    {
        OFFSET 17.704014 0.000000 0.000000
        CHANNELS 3 Zrotation Xrotation Yrotation
        JOINT LeftLeg
        {
            OFFSET -0.000000 -81.181816 0.000000
            CHANNELS 3 Zrotation Xrotation Yrotation
            JOINT LeftFoot
            {
                OFFSET -0.000000 -62.821102 0.000000
                CHANNELS 3 Zrotation Xrotation Yrotation
                JOINT LeftToeBase
                {
                    OFFSET -0.000000 -11.507608 26.556021
                    CHANNELS 3 Zrotation Xrotation Yrotation
                    End Site
                    {
                        OFFSET -0.000000 0.000000 7.081605
                    }
                }
            }
        }
    }
    JOINT RightUpLeg
    {
        OFFSET -17.704014 0.000000 0.000000
        CHANNELS 3 Zrotation Xrotation Yrotation
        JOINT RightLeg
        {
            OFFSET -0.000000 -81.181816 0.000000
            CHANNELS 3 Zrotation Xrotation Yrotation
            JOINT RightFoot
            {
                OFFSET -0.000000 -62.821102 0.000000
                CHANNELS 3 Zrotation Xrotation Yrotation
                JOINT RightToeBase
                {
                    OFFSET -0.000000 -11.507608 26.556021
                    CHANNELS 3 Zrotation Xrotation Yrotation
                    End Site
                    {
                        OFFSET -0.000000 0.000000 7.081605
                    }
                }
            }
        }
    }
}
MOTION
Frames:    11
Frame Time:    0.008333
-11.009510    140.898438    -48.226593    -2.885505    -3.809834    51.980118    0.743300    -0.280954    -2.869346    -10.476557    -1.013929    -1.050783    1.721376    0.412583    -21.996492    16.456455    0.957783    -21.075766    7.414283    5.802617    -19.666611    -32.277836    21.719093    -48.807278    -8.774043    -8.504336    -116.366440    0.037075    -22.202215    -4.803848    -16.032246    -5.894532    -6.047500    12.735497    -20.651720    44.521221    -7.604444    -14.863512    26.932192    7.046405    -11.147465    31.512989    34.382069    6.579876    -3.371875    -7.175985    26.103363    -19.251993    -15.468685    -34.778954    38.522449    0.000000    0.000000    0.000000    -32.969604    -25.944094    -25.468983    15.083823    28.239603    -25.067108    8.411301    14.867888    -15.235168    0.000000    0.000000    0.000000    
-10.887940    140.881760    -48.419266    -2.815416    -3.720747    51.778011    0.690903    -0.293754    -2.712744    -10.456575    -0.961991    -0.993631    1.784827    0.393567    -22.001976    16.408951    0.957336    -21.097101    7.447217    5.774311    -19.668659    -32.232334    21.729061    -48.800728    -8.737385    -8.639617    -116.378288    0.078791    -22.277700    -4.793252    -16.003580    -5.884854    -6.082139    12.754428    -20.596743    44.466217    -7.587565    -14.978213    26.794666    7.122987    -11.259211    31.465294    34.237289    6.709579    -3.218013    -7.283630    26.143585    -19.179163    -15.445213    -34.842510    38.410595    0.000000    0.000000    0.000000    -33.058937    -26.030897    -25.392977    14.989177    28.131512    -25.007339    8.424325    15.061384    -15.183504    0.000000    0.000000    0.000000    
-10.776572    140.872513    -48.596779    -2.731538    -3.646467    51.570377    0.616311    -0.298530    -2.582768    -10.431196    -0.906653    -0.944979    1.836233    0.389182    -21.985527    16.393917    0.967487    -21.090742    7.468390    5.765340    -19.660187    -32.248333    21.644960    -48.710659    -8.723103    -8.643292    -116.368553    0.044299    -22.255646    -4.878662    -15.938182    -5.885872    -6.070146    12.776954    -20.526850    44.416420    -7.643187    -15.069818    26.670660    7.185834    -11.327280    31.510981    34.107162    6.848362    -3.083707    -7.415996    26.210764    -19.120600    -15.166537    -34.667923    38.270744    0.000000    0.000000    0.000000    -33.137806    -26.106968    -25.242586    14.947877    28.020710    -24.949659    8.453171    15.234207    -15.218163    0.000000    0.000000    0.000000    
-10.653756    140.856003    -48.777836    -2.626307    -3.584450    51.357502    0.540214    -0.264303    -2.455298    -10.386124    -0.890474    -0.900500    1.812881    0.413118    -21.974018    16.432049    0.993253    -21.073654    7.445142    5.777787    -19.637159    -32.294865    21.561216    -48.636208    -8.717676    -8.637399    -116.355011    0.020416    -22.237268    -4.817054    -15.913696    -5.814570    -6.089113    12.858274    -20.543089    44.455341    -7.637855    -15.147211    26.567047    7.255667    -11.396494    31.486790    33.942703    6.999480    -2.906929    -7.522204    26.333641    -19.028313    -15.277635    -34.967842    38.267471    0.000000    0.000000    0.000000    -33.222950    -26.173119    -25.073627    14.909113    27.931459    -24.863144    8.508774    15.398584    -15.283594    0.000000    0.000000    0.000000    
-10.537239    140.845139    -48.929657    -2.518379    -3.531349    51.192036    0.438027    -0.229017    -2.375424    -10.296031    -0.879688    -0.872056    1.738984    0.452501    -21.965137    16.492859    1.023386    -21.049501    7.368600    5.796918    -19.604759    -32.263561    21.567524    -48.467377    -8.686825    -8.726864    -116.397377    0.069238    -22.286947    -4.813550    -15.924515    -5.706356    -6.112325    12.914171    -20.460934    44.509583    -7.767119    -15.312489    26.457239    7.474042    -11.481855    31.480629    33.801647    7.130038    -2.756276    -7.627018    26.437698    -18.951057    -15.198803    -35.004410    38.173473    0.000000    0.000000    0.000000    -33.304638    -26.193499    -24.966986    14.857476    27.842928    -24.737606    8.535662    15.512336    -15.339608    0.000000    0.000000    0.000000    
-10.423277    140.842285    -49.066322    -2.412315    -3.505689    51.037460    0.351238    -0.184302    -2.317870    -10.209483    -0.874926    -0.851647    1.699006    0.528063    -21.952230    16.517504    1.019179    -21.025158    7.293153    5.835181    -19.540880    -32.302383    21.504885    -48.322731    -8.724926    -8.664604    -116.400154    0.189656    -22.292124    -4.792711    -15.911285    -5.648307    -6.067636    12.897151    -20.320717    44.500996    -7.915355    -15.474689    26.353296    7.543281    -11.594637    31.565821    33.707478    7.238463    -2.648353    -7.780439    26.573465    -18.899973    -15.103663    -35.044754    38.141735    0.000000    0.000000    0.000000    -33.350513    -26.187061    -24.914227    14.754767    27.763117    -24.575623    8.588780    15.626592    -15.348056    0.000000    0.000000    0.000000    
-10.309666    140.829254    -49.192596    -2.304683    -3.486389    50.899818    0.279471    -0.146682    -2.282152    -10.152137    -0.856167    -0.837508    1.663676    0.569631    -21.928848    16.527302    1.055553    -20.998743    7.220461    5.850584    -19.463905    -32.359402    21.486017    -48.160084    -8.744396    -8.627020    -116.394104    0.247225    -22.287138    -4.773665    -15.883042    -5.536252    -6.054013    12.919648    -20.285128    44.575901    -8.020233    -15.554243    26.233490    7.536938    -11.657375    31.629164    33.616573    7.349185    -2.578678    -7.926169    26.692673    -18.843056    -15.018074    -35.101036    38.113369    0.000000    0.000000    0.000000    -33.399757    -26.160423    -24.900738    14.658453    27.682594    -24.429117    8.627769    15.724423    -15.345572    0.000000    0.000000    0.000000    
-10.195978    140.815063    -49.296307    -2.221170    -3.475515    50.792870    0.227544    -0.150596    -2.275688    -10.102956    -0.812595    -0.831151    1.626760    0.619159    -21.911665    16.529806    1.091723    -20.979410    7.119531    5.857467    -19.372520    -32.400551    21.500772    -47.984688    -8.781836    -8.609905    -116.393867    0.300758    -22.330099    -4.730281    -15.879113    -5.530995    -5.968615    12.938173    -20.208843    44.541550    -8.071953    -15.603695    26.191359    7.603027    -11.681088    31.619776    33.544926    7.432174    -2.494803    -8.029878    26.810535    -18.823687    -14.939573    -35.158676    38.095486    0.000000    0.000000    0.000000    -33.431023    -26.116835    -24.912271    14.562842    27.598833    -24.328859    8.631418    15.802846    -15.278649    0.000000    0.000000    0.000000    
-10.087020    140.799789    -49.391418    -2.150127    -3.478110    50.700462    0.214760    -0.148269    -2.274047    -10.091896    -0.783779    -0.827933    1.575436    0.694212    -21.896410    16.567131    1.106010    -20.952211    7.030775    5.867390    -19.269978    -32.456802    21.513988    -47.821510    -8.833224    -8.544320    -116.383659    0.376119    -22.346899    -4.652203    -15.879492    -5.432202    -5.973574    13.003108    -20.165770    44.624058    -8.158391    -15.672912    26.147289    7.652929    -11.723290    31.587893    33.491093    7.496106    -2.391144    -8.100505    26.959940    -18.885921    -14.810631    -35.199024    38.089184    0.000000    0.000000    0.000000    -33.444172    -26.062714    -24.923119    14.475587    27.504013    -24.266891    8.614850    15.891054    -15.187780    0.000000    0.000000    0.000000    
-9.979145    140.793091    -49.478512    -2.096272    -3.491710    50.628948    0.222015    -0.161173    -2.284653    -10.085369    -0.751302    -0.828655    1.541832    0.764875    -21.894428    16.556625    1.128495    -20.948847    6.939264    5.897897    -19.174776    -32.555153    21.456390    -47.657223    -9.018742    -8.249038    -116.370033    0.858012    -22.366758    -4.434362    -15.892704    -5.369911    -5.935421    13.039912    -20.105686    44.632561    -8.237999    -15.710026    26.136040    7.680102    -11.737138    31.573355    33.448288    7.540335    -2.308264    -8.155927    27.108707    -18.873774    -14.749634    -35.249741    38.025265    0.000000    0.000000    0.000000    -33.432503    -25.998995    -24.985556    14.343083    27.410915    -24.163589    8.621327    15.980945    -15.099170    0.000000    0.000000    0.000000    
-9.881700    140.795822    -49.553429    -2.075070    -3.516361    50.566555    0.264063    -0.192238    -2.292856    -10.091644    -0.721483    -0.828852    1.544048    0.807542    -21.879698    16.472811    1.153428    -20.947062    6.858131    5.935035    -19.094418    -32.673851    21.400492    -47.486355    -9.169271    -8.010155    -116.348488    1.023215    -22.372623    -4.354177    -15.903805    -5.355065    -5.871198    13.034645    -20.051907    44.568428    -8.251676    -15.681322    26.162027    7.631677    -11.715710    31.582022    33.434631    7.557731    -2.246850    -8.213531    27.262228    -18.870707    -14.683434    -35.304169    37.998158    0.000000    0.000000    0.000000    -33.381500    -25.952799    -25.066145    14.189614    27.319309    -24.082314    8.599372    16.086151    -14.972130    0.000000    0.000000    0.000000    
